REM DIRINDEX 1\2\6,1\2\7,1\2\8,1\2\9,1\3\10,1\3\11,1\4\12,1\4\13,1\4\14,1\5\15,1\5\16,1\5\17
REM DIRNAME cjc020,folder01,folder02,folder03,folder04,folder05,folder06,folder07,folder08,folder09,folder10,folder11,folder12,folder13,folder14,folder15,folder16
TITLE ""
FILE "1900_3_002 sec01_0016_0031.mp3" MP3
  TRACK 01 AUDIO
    TITLE "0:"
    INDEX 01 00:00:00
  TRACK 02 AUDIO
    TITLE "17:cjc020_5998"
    INDEX 01 00:00:17
  TRACK 03 AUDIO
    TITLE "0:"
    INDEX 01 00:01:15
  TRACK 04 AUDIO
    TITLE "16:cjc020_5999"
    INDEX 01 00:01:19
  TRACK 05 AUDIO
    TITLE "0:"
    INDEX 01 00:02:32
  TRACK 06 AUDIO
    TITLE "17:cjc020_6000"
    INDEX 01 00:03:14
  TRACK 07 AUDIO
    TITLE "0:"
    INDEX 01 00:04:21
  TRACK 08 AUDIO
    TITLE "16:cjc020_6001"
    INDEX 01 00:04:29
  TRACK 09 AUDIO
    TITLE "0:"
    INDEX 01 00:05:59
  TRACK 10 AUDIO
    TITLE "17:cjc020_6002"
    INDEX 01 00:06:35
  TRACK 11 AUDIO
    TITLE "0:"
    INDEX 01 00:07:66
  TRACK 12 AUDIO
    TITLE "16:cjc020_6003"
    INDEX 01 00:07:70
  TRACK 13 AUDIO
    TITLE "0:"
    INDEX 01 00:09:06
  TRACK 14 AUDIO
    TITLE "17:cjc020_6004"
    INDEX 01 00:09:67
  TRACK 15 AUDIO
    TITLE "0:"
    INDEX 01 00:10:68
  TRACK 16 AUDIO
    TITLE "16:cjc020_6005"
    INDEX 01 00:10:72
  TRACK 17 AUDIO
    TITLE "0:"
    INDEX 01 00:12:09
  TRACK 18 AUDIO
    TITLE "17:cjc020_6006"
    INDEX 01 00:12:69
  TRACK 19 AUDIO
    TITLE "0:"
    INDEX 01 00:14:21
  TRACK 20 AUDIO
    TITLE "16:cjc020_6007"
    INDEX 01 00:14:29
  TRACK 21 AUDIO
    TITLE "0:"
    INDEX 01 00:15:38
  TRACK 22 AUDIO
    TITLE "17:cjc020_6008"
    INDEX 01 00:16:20
  TRACK 23 AUDIO
    TITLE "0:"
    INDEX 01 00:17:33
  TRACK 24 AUDIO
    TITLE "16:cjc020_6009"
    INDEX 01 00:17:43
  TRACK 25 AUDIO
    TITLE "0:"
    INDEX 01 00:18:54
  TRACK 26 AUDIO
    TITLE "17:cjc020_6010"
    INDEX 01 00:19:34
  TRACK 27 AUDIO
    TITLE "0:"
    INDEX 01 00:20:51
  TRACK 28 AUDIO
    TITLE "16:cjc020_6011"
    INDEX 01 00:20:59
  TRACK 29 AUDIO
    TITLE "0:"
    INDEX 01 00:22:03
  TRACK 30 AUDIO
    TITLE "17:cjc020_6012"
    INDEX 01 00:22:62
  TRACK 31 AUDIO
    TITLE "0:"
    INDEX 01 00:24:10
  TRACK 32 AUDIO
    TITLE "16:cjc020_6013"
    INDEX 01 00:24:16
  TRACK 33 AUDIO
    TITLE "0:"
    INDEX 01 00:25:33
  TRACK 34 AUDIO
    TITLE "17:cjc020_6014"
    INDEX 01 00:26:15
  TRACK 35 AUDIO
    TITLE "0:"
    INDEX 01 00:27:51
  TRACK 36 AUDIO
    TITLE "16:cjc020_6015"
    INDEX 01 00:27:59
  TRACK 37 AUDIO
    TITLE "0:"
    INDEX 01 00:28:62
  TRACK 38 AUDIO
    TITLE "17:cjc020_6016"
    INDEX 01 00:29:48
  TRACK 39 AUDIO
    TITLE "0:"
    INDEX 01 00:30:69
  TRACK 40 AUDIO
    TITLE "16:cjc020_6017"
    INDEX 01 00:31:04
  TRACK 41 AUDIO
    TITLE "0:"
    INDEX 01 00:32:07
  TRACK 42 AUDIO
    TITLE "17:cjc020_6018"
    INDEX 01 00:32:66
  TRACK 43 AUDIO
    TITLE "0:"
    INDEX 01 00:34:57
  TRACK 44 AUDIO
    TITLE "16:cjc020_6019"
    INDEX 01 00:34:59
  TRACK 45 AUDIO
    TITLE "0:"
    INDEX 01 00:35:63
  TRACK 46 AUDIO
    TITLE "17:cjc020_6020"
    INDEX 01 00:36:48
  TRACK 47 AUDIO
    TITLE "0:"
    INDEX 01 00:37:69
  TRACK 48 AUDIO
    TITLE "16:cjc020_6021"
    INDEX 01 00:38:00
  TRACK 49 AUDIO
    TITLE "0:"
    INDEX 01 00:39:05
  TRACK 50 AUDIO
    TITLE "17:cjc020_6022"
    INDEX 01 00:39:64
  TRACK 51 AUDIO
    TITLE "0:"
    INDEX 01 00:40:66
  TRACK 52 AUDIO
    TITLE "16:cjc020_6023"
    INDEX 01 00:40:70
  TRACK 53 AUDIO
    TITLE "0:"
    INDEX 01 00:42:18
  TRACK 54 AUDIO
    TITLE "17:cjc020_6024"
    INDEX 01 00:43:03
  TRACK 55 AUDIO
    TITLE "0:"
    INDEX 01 00:44:09
  TRACK 56 AUDIO
    TITLE "16:cjc020_6025"
    INDEX 01 00:44:16
  TRACK 57 AUDIO
    TITLE "0:"
    INDEX 01 00:45:24
  TRACK 58 AUDIO
    TITLE "17:cjc020_6026"
    INDEX 01 00:46:11
  TRACK 59 AUDIO
    TITLE "0:"
    INDEX 01 00:47:66
  TRACK 60 AUDIO
    TITLE "16:cjc020_6027"
    INDEX 01 00:47:68
  TRACK 61 AUDIO
    TITLE "0:"
    INDEX 01 00:49:00
  TRACK 62 AUDIO
    TITLE "17:cjc020_6028"
    INDEX 01 00:49:59
  TRACK 63 AUDIO
    TITLE "0:"
    INDEX 01 00:50:56
  TRACK 64 AUDIO
    TITLE "16:cjc020_6029"
    INDEX 01 00:50:64
  TRACK 65 AUDIO
    TITLE "0:"
    INDEX 01 00:51:69
